<svg xmlns:xlink="http://www.w3.org/1999/xlink" xmlns="http://www.w3.org/2000/svg" fill="none" height="40" viewBox="0 0 40 40" width="40">
    <g>
        <path fill="#221f1f" d="m39.9998 20.0882c-.044 11.0473-9.0528 19.9557-20.0879 19.9116-11.03516-.0441-19.95579-9.0407-19.91173754-20.088.04405254-11.04732 9.05278754-19.955738 20.08793754-19.91163696 11.0572.04410106 19.9558 9.04071696 19.9117 20.08803696z"></path>
        <path fill="#05bc52" d="m27.203 29.9007c-2.1145 3.7927-4.7356 6.9018-7.6651 6.8357-1.8282-.0442-3.5683-.7277-5.1542-1.8082.5067-.9261 3.7005-5.5567 12.8193-5.0275zm12.2687-9.8125c-.0441 10.7386-8.8106 19.4265-19.5594 19.3604-10.74877-.0441-19.383064-8.7982-19.383064-19.5368 0-6.968 3.480144-11.97346 6.784084-14.66362 4.05288-3.28553 6.80608-.77177 7.77528 1.14663-.1101-.81587-.4405-3.15323-1.3436-4.82907 1.9824-.683568 4.1189-1.058427 6.3435-1.036377 10.7489.066152 19.4272 8.798167 19.3832 19.558837zm-20.5065-11.20168c2.8194-1.9184 7.6872-2.97683 10.2642 1.03637-1.5638-9.173021-8.3259-3.90294-10.2642-1.03637zm-3.9207 8.66588c.5947-.6615 1.2776-1.3231 2.0705-1.9184 3.5242-2.7122 7.3788-3.3958 8.6343-1.4995.4846.7277.5066 1.742.1322 2.8446 1.2554-2.0728 1.6519-3.9912.881-5.0496-1.2995-1.7641-5.3304-.5513-9.0087 2.7122-1.0793.9041-1.9824 1.9184-2.7093 2.9107zm-6.14529 1.6317c1.78409.3308 3.72239-1.9404 4.31719-5.1157.5947-3.1753-.3525-5.99775-2.1366-6.35056-1.78412-.33076-3.72243 1.94045-4.31713 5.11576-.59471 3.1532.35242 5.9977 2.13654 6.3505zm24.80159-3.8368c-17.0704 11.4443-28.85442 5.645-28.85442 5.645-.17621 3.9691 6.62992 16.163 14.73552 16.3174 8.1277.1543 14.1189-21.9624 14.1189-21.9624zm-26.45356-2.4476c.55066-2.91066 2.22465-5.02751 3.74446-4.7188 1.5198.28666 2.3128 2.8886 1.7841 5.7993-.5506 2.9107-2.2246 5.0275-3.74443 4.7188-1.54184-.2866-2.33478-2.8886-1.78413-5.7993zm3.23786 2.4697c.6828.1543 1.4317-.6836 1.696-1.8523.2643-1.1686-.0881-2.2491-.7709-2.3814-.4625-.1103-.9471.2425-1.2995.8379.3083.1543.4625.5513.3083.882-.1321.3087-.4405.4631-.74887.3969-.13216 1.0364.19824 1.9625.81497 2.1169z"></path>
    </g>
</svg>