<svg xmlns:xlink="http://www.w3.org/1999/xlink" xmlns="http://www.w3.org/2000/svg" width="24" height="24"><defs><symbol viewBox="0 0 24 24" id="icon-fat-15954">
    <g clip-rule="evenodd" fill-rule="evenodd">
        <path d="m8.68772 3.73693c1.16599-2.01956 3.68288-3.070045 5.71408-1.89734 1.0748.62058 1.6786 1.67003 1.8362 2.81993 1.0746-.4385 2.2854-.44033 3.3603.18031 2.031 1.17255 2.3798 3.87758 1.2138 5.89707-.1067.1849-.2248.3616-.3527.5292.5575.2138 1.0462.6 1.3839 1.1849.9352 1.6198-.0293 3.4809-1.5314 4.3481-1.5015.8669-3.5956.7717-4.5308-.8481-.575-.996-.4319-2.0833.1128-2.9746-.2705-.0798-.537-.1931-.7956-.3423-1.0749-.6207-1.6788-1.67-1.8364-2.81984-1.0746.43844-2.2853.44014-3.36013-.18044-.25861-.14931-.48995-.32345-.69436-.51784-.4995.91732-1.36945 1.58492-2.51952 1.58492-1.87032 0-3.00009-1.76575-3.00009-3.49976 0-1.73449 1.12967-3.50025 3.00009-3.50025.67533 0 1.25406.23019 1.71791.60598.0812-.19458.17522-.38513.28192-.56994zm4.71408-.16529c-.8337-.48129-2.2181-.15794-2.982 1.16529-.76396 1.32317-.3518 2.68349.482 3.16484.8341.4816 2.2182.1583 2.9821-1.16484.7639-1.32315.3519-2.68377-.4821-3.16529zm2.2141 4.16529c.764-1.32316 2.1482-1.64669 2.9824-1.16505.8334.48113 1.2457 1.84186.4817 3.16505-.7639 1.32317-2.1482 1.64627-2.9817 1.16507-.8343-.4817-1.2463-1.84196-.4824-3.16507zm-8.92801-2.03604c-.37242 0-1.00009.43076-1.00009 1.50025 0 1.06877.62758 1.49975 1.00009 1.49975.37241 0 .99991-.43085.99991-1.49975 0-1.0696-.62762-1.50025-.99991-1.50025zm11.62401 7.63411c.9262-.5348 1.6131-.2066 1.7994.116.1861.3224.1269 1.0812-.7994 1.616-.9256.5345-1.6125.2065-1.7987-.116-.1863-.3226-.1268-1.0816.7987-1.616z"></path>
        <path d="m5.03581 11.9925c2.17427-1.0657 4.51513-1.4065 6.97279.0124l.0045.0026c2.2774 1.331 3.5002 3.8008 3.5333 6.2564.0167 1.2436-.3509 2.4067-1.0128 3.2756-.6648.8726-1.6633 1.4821-2.8427 1.4505-.4467-.012-.8777-.1283-1.268-.3536-.81445-.4702-1.26324-1.3246-1.57143-1.9113l-.04674-.0889c-.38738-.7322-.72788-1.0845-1.06945-1.2798-.34777-.1989-.8253-.3092-1.6373-.3027l-.10726.0009c-.69975.0062-1.62704.0143-2.42162-.4444-.43378-.2505-.77644-.6087-1.0149-1.048-.6733-1.2419-.42407-2.496.14883-3.4587.5577-.9371 1.45745-1.6833 2.33278-2.111zm5.97039 1.7431c-1.71259-.9878-3.31801-.816-5.09066.053l-.00129.0007c-.57836.2825-1.16161.7809-1.49254 1.337-.31575.5306-.36055 1.0189-.1098 1.4818.06835.1259.15339.2101.25719.27.2729.1576.64938.1817 1.51322.1757.97194-.0078 1.85806.1159 2.64583.5664.79398.4541 1.36085 1.1666 1.84485 2.0816.3851.7293.5894 1.0521.8499 1.2026.0892.0515.1927.0828.3216.0863.4086.0109.8385-.1911 1.1982-.6632.3624-.4758.6153-1.1906.6039-2.0367-.0248-1.8423-.9426-3.6202-2.5404-4.5552z"></path>
    </g>
</symbol></defs><use href="#icon-fat-15954" fill="#797878"></use></svg>