<svg xmlns:xlink="http://www.w3.org/1999/xlink" xmlns="http://www.w3.org/2000/svg" width="24" height="24"><defs><symbol viewBox="0 0 24 24" id="icon-fat-5300"><path clip-rule="evenodd" d="m0 3c0-1.65685 1.34315-3 3-3h7c1.6569 0 3 1.34315 3 3v8h-2v-8c0-.55228-.4477-1-1-1h-7c-.55228 0-1 .44772-1 1v8h-2z" fill-rule="evenodd" transform="translate(5 3)"></path><path d="m2 1c0 .55228-.44772 1-1 1-.552285 0-1-.44772-1-1 0-.552285.447715-1 1-1 .55228 0 1 .447715 1 1z" transform="translate(9 6)"></path><path d="m2 1c0 .55228-.44772 1-1 1-.552285 0-1-.44772-1-1 0-.552285.447715-1 1-1 .55228 0 1 .447715 1 1z" transform="translate(12 6)"></path><path d="m2 1c0 .55228-.44772 1-1 1-.552285 0-1-.44772-1-1 0-.552285.447715-1 1-1 .55228 0 1 .447715 1 1z" transform="translate(9 9)"></path><path d="m2 1c0 .55228-.44772 1-1 1-.552285 0-1-.44772-1-1 0-.552285.447715-1 1-1 .55228 0 1 .447715 1 1z" transform="translate(12 9)"></path><g clip-rule="evenodd" fill-rule="evenodd"><path d="m3 2h-1v7h1zm-1-2c-1.104569 0-2 .895431-2 2v9h5v-9c0-1.104569-.89543-2-2-2z" transform="translate(2 10)"></path><path d="m11 2h-9v4h9zm-11-2v8h13v-8z" transform="translate(5 13)"></path><path d="m3 2h-1v7h1zm-1-2c-1.104569 0-2 .895431-2 2v9h5v-9c0-1.104569-.89543-2-2-2z" transform="translate(16 10)"></path></g><path d="m0 0h2v2h-2z" transform="translate(4 20)"></path><path d="m0 0h2v2h-2z" transform="translate(17 20)"></path></symbol></defs><use href="#icon-fat-5300" fill="#797878"></use></svg>