<svg xmlns:xlink="http://www.w3.org/1999/xlink" xmlns="http://www.w3.org/2000/svg" width="16" height="16"><defs><symbol viewBox="0 0 24 24" id="icon-arrow-down">
    <path d="m12.0006 3.00049c-.5523 0-1 .44771-1 1v13.17001l-4.88-4.88c-.39172-.3917-1.02716-.3906-1.4175.0025-.38838.3911-.38726 1.0227.0025 1.4125l7.295 7.295 7.2947-7.2947c.3895-.3895.3895-1.0211 0-1.4106-.3893-.3893-1.0204-.3896-1.41-.0007l-4.8847 4.876v-13.17001c0-.55229-.4477-1-1-1z"></path>
</symbol></defs><g fill="#3E77AA">
    <path d="m12.0006 3.00049c-.5523 0-1 .44771-1 1v13.17001l-4.88-4.88c-.39172-.3917-1.02716-.3906-1.4175.0025-.38838.3911-.38726 1.0227.0025 1.4125l7.295 7.295 7.2947-7.2947c.3895-.3895.3895-1.0211 0-1.4106-.3893-.3893-1.0204-.3896-1.41-.0007l-4.8847 4.876v-13.17001c0-.55229-.4477-1-1-1z"></path>
</g></svg>