<svg xmlns:xlink="http://www.w3.org/1999/xlink" xmlns="http://www.w3.org/2000/svg" width="24" height="24"><defs><symbol viewBox="0 0 24 24" id="icon-fat-7806"><path clip-rule="evenodd" d="m16.4617 2h-14.4614l.5385 4.25133c.1266.99941.97675 1.74867 1.98415 1.74867h9.41605c1.0074 0 1.8576-.74926 1.9842-1.74868zm-14.4614-2c-1.204311 0-2.135481 1.05656-1.9841442 2.25133l.5385012 4.25132c.253184 1.99882 1.953503 3.49735 3.968293 3.49735h9.41605c2.0148 0 3.7151-1.49853 3.9683-3.49735l.5385-4.25132c.1514-1.19477-.7798-2.25133-1.9841-2.25133z" fill-rule="evenodd" transform="translate(3.26855 10)"></path><path d="m0 0h2v3h-2z" transform="translate(7 19)"></path><path d="m0 0h2v3h-2z" transform="translate(16 19)"></path><g clip-rule="evenodd" fill-rule="evenodd"><path d="m3.5 2c-.84935 0-1.5.66783-1.5 1.44541h-2c0-1.92354 1.58793-3.44541 3.5-3.44541s3.5 1.52187 3.5 3.44541v4.55459h-2v-4.55459c0-.77758-.65065-1.44541-1.5-1.44541z" transform="translate(13 3)"></path><path d="m.232319 1.14489c.549335-.697233 1.401301-1.14489 2.357821-1.14489.95653 0 1.80849.447657 2.35783 1.14489.68358.86764-.25326 1.85511-1.35783 1.85511h-2c-1.104566 0-2.041405-.98747-1.357821-1.85511z" transform="translate(11.4092 6)"></path><path d="m4 2h-2v1h2zm-4-2v5h6v-5z" transform="translate(7 10)"></path></g></symbol></defs><use href="#icon-fat-7806" fill="#797878"></use></svg>