<svg xmlns:xlink="http://www.w3.org/1999/xlink" xmlns="http://www.w3.org/2000/svg" width="24" height="24"><defs><symbol viewBox="0 0 24 24" id="icon-fat-10515"><path clip-rule="evenodd" d="m4.79785 0h3.74754l1.58581 1.58579 1.5858-1.58579h3.7475l4.7979 3.59839-1.423 5.69178-2.7082-.90274v10.61257h-12.00002v-10.61257l-2.70823.90274-1.42295-5.69178zm.66666 2-3.20215 2.40162.57705 2.30821 3.29177-1.09726v11.38743h8.00002v-11.38743l3.2917 1.09726.5771-2.30821-3.2022-2.40162h-2.2524l-2.4142 2.41421-2.41423-2.41421z" fill-rule="evenodd" transform="translate(1.86914 3)"></path><path d="m2 1c0 .55228-.44772 1-1 1-.552285 0-1-.44772-1-1 0-.552285.447715-1 1-1 .55228 0 1 .447715 1 1z" transform="translate(11 9)"></path><path d="m2 1c0 .55228-.44772 1-1 1-.552285 0-1-.44772-1-1 0-.552285.447715-1 1-1 .55228 0 1 .447715 1 1z" transform="translate(11 13)"></path></symbol></defs><use href="#icon-fat-10515" fill="#797878"></use></svg>