<svg xmlns:xlink="http://www.w3.org/1999/xlink" xmlns="http://www.w3.org/2000/svg" width="24" height="24"><defs><symbol viewBox="0 0 24 24" id="icon-fat-17191"><path d="m1.3 2.6c.71797 0 1.3-.58203 1.3-1.3s-.58203-1.3-1.3-1.3c-.717971 0-1.3.58203-1.3 1.3s.582029 1.3 1.3 1.3z" transform="translate(14.5 6.09998)"></path><path d="m19 1.7c-.1-.5-.4-.8-.9-.9l-7-.8c-.3 0-.6.1-.8.3l-10 10c-.4.4-.4 1 0 1.4l7.8 7.8c.4.4 1 .4 1.4 0l10-10c.2-.2.3-.5.3-.8zm-10.3 15.7-6.4-6.4 9-9 5.8.6.6 5.8z" transform="translate(2 2)"></path></symbol></defs><use href="#icon-fat-17191" fill="#797878"></use></svg>