<svg xmlns:xlink="http://www.w3.org/1999/xlink" xmlns="http://www.w3.org/2000/svg" width="24" height="24"><defs><symbol viewBox="0 0 24 24" id="icon-fat-18421"><path d="m7 7v2h-2v2h2v2h2v-2h2v-2h-2v-2z"></path><path d="m16 9c.5523 0 1-.44772 1-1s-.4477-1-1-1-1 .44772-1 1 .4477 1 1 1z"></path><path d="m17 12c0 .5523-.4477 1-1 1s-1-.4477-1-1 .4477-1 1-1 1 .4477 1 1z"></path><path d="m14 11c.5523 0 1-.4477 1-1 0-.55228-.4477-1-1-1s-1 .44772-1 1c0 .5523.4477 1 1 1z"></path><path d="m19 10c0 .5523-.4477 1-1 1s-1-.4477-1-1c0-.55228.4477-1 1-1s1 .44772 1 1z"></path><path clip-rule="evenodd" d="m2.19858 21.0993c1.08957.5448 2.40039.3766 3.31715-.4256l3.19175-2.7927c1.88512-1.6495 4.69992-1.6495 6.58502 0l3.1918 2.7927c.9167.8022 2.2276.9704 3.3171.4256l.3147-.1573c1.1305-.5653 1.7855-1.7785 1.6378-3.0338l-1.3383-11.37557c-.237-2.01445-1.9442-3.53263-3.9726-3.53263h-1.7348c-.4657 0-.9251.10844-1.3416.31672l-2.025 1.01246c-.8445.42229-1.8387.42229-2.6832 0l-2.02496-1.01246c-.41656-.20828-.8759-.31672-1.34164-.31672h-1.7348c-2.02834 0-3.7356 1.51818-3.9726 3.53263l-1.338294 11.37547c-.1476842 1.2554.507278 2.4686 1.637814 3.0339zm12.03752-14.98127 2.0249-1.01246c.1388-.06942.292-.10557.4472-.10557h1.7348c1.0142 0 1.8678.75909 1.9863 1.76632l1.3383 11.37548c.0492.4185-.1691.8229-.5459 1.0113l-.3147.1573c-.3632.1816-.8001.1256-1.1057-.1418l-3.1918-2.7928c-2.6391-2.3093-6.5798-2.3093-9.21903 0l-3.19175 2.7928c-.30558.2674-.74252.3234-1.10571.1418l-.31467-.1573c-.37684-.1884-.59516-.5928-.54593-1.0113l1.33829-11.37548c.1185-1.00723.97213-1.76632 1.9863-1.76632h1.7348c.15525 0 .30836.03614.44722.10557l2.02492 1.01246c1.40766.70382 3.06446.70382 4.47216 0z" fill-rule="evenodd"></path></symbol></defs><use href="#icon-fat-18421" fill="#797878"></use></svg>