<svg xmlns:xlink="http://www.w3.org/1999/xlink" xmlns="http://www.w3.org/2000/svg" width="24" height="24"><defs><symbol viewBox="0 0 24 24" id="icon-fat-8261"><path d="M0 0H2V14H0V0Z" transform="translate(6 8)"></path><path d="M0 0H2V14H0V0Z" transform="translate(15 3)"></path><path d="M0 0H2V10H0V0Z" transform="translate(2 8) rotate(-90)"></path><path fill-rule="evenodd" clip-rule="evenodd" d="M0 0H10V5C10 5.82669 9.76022 7.04446 9.01153 8.0843C8.22614 9.17513 6.92592 10 5 10C3.07408 10 1.77386 9.17513 0.988466 8.0843C0.239781 7.04446 0 5.82669 0 5V0ZM2 2V5C2 5.50664 2.16022 6.28887 2.61153 6.9157C3.02614 7.49153 3.72592 8 5 8C6.27408 8 6.97386 7.49153 7.38847 6.9157C7.83978 6.28887 8 5.50664 8 5V2H2Z" transform="translate(11 12)"></path><path d="M0 0H2V3H0V0Z" transform="translate(2 3)"></path><path d="M0 0H2V3H0V0Z" transform="translate(6 3)"></path><path d="M0 0H2V3H0V0Z" transform="translate(10 3)"></path></symbol></defs><use href="#icon-fat-8261" fill="#797878"></use></svg>