<svg xmlns:xlink="http://www.w3.org/1999/xlink" xmlns="http://www.w3.org/2000/svg" width="24" height="24"><defs><symbol viewBox="0 0 24 24" id="icon-fat-14939"><g clip-rule="evenodd" fill-rule="evenodd"><path d="m8 2h-8v-2h8z" transform="translate(9 20)"></path><path d="m0 5.38333v-5.38333h2v5.38333z" transform="translate(12 15.6167)"></path><path d="m4.68981 0h4.17271v2h-3.02727l-4.1102 7.00601-1.72505-1.01202z" transform="translate(12.1377 3)"></path><path d="m0 0h16l-8 10.6667zm4 2 4 5.33333 4-5.33333z" transform="translate(5 7)"></path><path d="m4 2c-1.10457 0-2 .89543-2 2s.89543 2 2 2c.36595 0 .70612-.09737.99927-.26695l1.00146 1.73121c-.58937.34093-1.27382.53574-2.00073.53574-2.20914 0-4-1.79086-4-4s1.79086-4 4-4 4 1.79086 4 4h-2c0-1.10457-.89543-2-2-2z" transform="translate(2 3)"></path></g></symbol></defs><use href="#icon-fat-14939" fill="#797878"></use></svg>