<svg xmlns:xlink="http://www.w3.org/1999/xlink" xmlns="http://www.w3.org/2000/svg" width="24" height="24"><defs><symbol viewBox="0 0 24 24" id="icon-fat-14127"><path d="m2.675 13.8c-.9-.9-.9-2.3 0-3.2l9.2-9.2-1.4-1.39999981-9.2 9.19999981c-1.7 1.7-1.7 4.3 0 6s4.3 1.7 6 0l-1.4-1.4c-1 .9-2.4.9-3.2 0z" transform="translate(3 6.34998)"></path><path d="m17 1.65c-2.2-2.2-5.7-2.2-7.8 0l-9.19999999 9.2 1.39999999 1.4 9.2-9.2c1.4-1.4 3.6-1.4 5 0s1.4 3.6 0 5l-10.1 10.1 1.4 1.4 10.1-10.1c2.2-2.1 2.2-5.6 0-7.8z" transform="translate(3.27539 2)"></path><path d="m9.7.825c-1.1-1.1-3-1.1-4.2 0l1.4 1.4c.4-.4 1-.4 1.3 0 .4.4.4 1 0 1.3l-8.1999999 8.2 1.3999999 1.4 8.2-8.2c1.2-1.1 1.2-3 .1-4.1z" transform="translate(7.875 5.625)"></path></symbol></defs><use href="#icon-fat-14127" fill="#797878"></use></svg>