<svg xmlns:xlink="http://www.w3.org/1999/xlink" xmlns="http://www.w3.org/2000/svg" _ngcontent-rz-client-c948847522="" aria-hidden="true" width="24"  height="24" ><defs><symbol viewBox="0 0 24 24" id="icon-box-search">
  <path fill-rule="evenodd" clip-rule="evenodd" d="M4.91889 1.75061C5.29843 1.27618 5.87306 1 6.48062 1H17.5194C18.1269 1 18.7016 1.27618 19.0811 1.75061L23 6.64922V11H21V8H3V21H11V23H3C1.89543 23 1 22.1046 1 21V6.64922L4.91889 1.75061ZM11 3L6.48063 3L4.08062 6H11V3ZM13 3V6H19.9194L17.5194 3H13Z"></path>
  <path fill-rule="evenodd" clip-rule="evenodd" d="M20.9836 19.6863C20.9908 19.6931 20.9979 19.7 21.005 19.707L23.6006 22.3027C23.959 22.6611 23.959 23.2421 23.6006 23.6005C23.2423 23.9589 22.6612 23.9589 22.3028 23.6005L19.7071 21.0049C19.7001 20.9978 19.6932 20.9907 19.6864 20.9835C18.7874 21.6236 17.6877 22 16.5 22C13.4624 22 11 19.5376 11 16.5C11 13.4624 13.4624 11 16.5 11C19.5376 11 22 13.4624 22 16.5C22 17.6876 21.6236 18.7873 20.9836 19.6863ZM20 16.5C20 18.433 18.433 20 16.5 20C14.567 20 13 18.433 13 16.5C13 14.567 14.567 13 16.5 13C18.433 13 20 14.567 20 16.5Z"></path>
</symbol></defs><use _ngcontent-rz-client-c948847522="" href="#icon-box-search" fill="#797878"></use></svg>