<svg xmlns:xlink="http://www.w3.org/1999/xlink" xmlns="http://www.w3.org/2000/svg" _ngcontent-rz-client-c1621535610="" aria-hidden="true" width="24"  height="24" ><defs><symbol viewBox="0 0 24 24" id="icon-delivery-shop">
  <path id="icon-delivery-shop_Union" fill-rule="evenodd" clip-rule="evenodd" d="M3.67702 1C2.85921 1 2.12379 1.4979 1.82007 2.25722L0.394676 5.82069C0.0241111 6.7471 0.393039 7.80492 1.25935 8.29996L1.99998 8.72318V21C1.99998 22.1046 2.89541 23 3.99998 23H20C21.1046 23 22 22.1046 22 21V8.72318L22.7406 8.29996C23.6069 7.80492 23.9759 6.7471 23.6053 5.82069L22.1799 2.25722C21.8762 1.4979 21.1408 1 20.323 1H3.67702ZM20 9.57291C19.2309 9.65316 18.4427 9.43479 17.8138 8.93171L17 8.28062L16.3741 8.78136C15.2784 9.65788 13.7216 9.65788 12.6259 8.78136L12 8.28062L11.3741 8.78136C10.2784 9.65788 8.72156 9.65788 7.6259 8.78136L6.99999 8.28062L6.18613 8.93171C5.55727 9.43479 4.7691 9.65316 3.99998 9.57291V21H4.99998V12.998C4.99998 11.8907 5.89809 11 6.99998 11L17 11C18.1014 11 19 11.8898 19 12.9976V21H20V9.57291ZM12 21H6.99999L6.99998 13L12 13V21ZM14 21H17V13H14V21ZM3.67702 3H20.323L21.7483 6.56347L20.1841 7.45735C19.8279 7.66087 19.3836 7.62623 19.0632 7.36997L18.2494 6.71889C17.5189 6.13454 16.481 6.13454 15.7506 6.71889L15.1247 7.21962C14.7595 7.51179 14.2405 7.51179 13.8753 7.21962L13.2494 6.71889C12.5189 6.13454 11.481 6.13454 10.7506 6.71889L10.1247 7.21962C9.75946 7.51179 9.24051 7.51179 8.87529 7.21962L8.24938 6.71889C7.51894 6.13454 6.48103 6.13454 5.7506 6.71889L4.93674 7.36997C4.61641 7.62623 4.17207 7.66087 3.81591 7.45735L2.25163 6.56347L3.67702 3Z"></path>
</symbol></defs><use _ngcontent-rz-client-c1621535610="" href="#icon-delivery-shop" fill="#797878"></use></svg>