<svg xmlns:xlink="http://www.w3.org/1999/xlink" xmlns="http://www.w3.org/2000/svg" width="24" height="24"><defs><symbol viewBox="0 0 24 24" id="icon-fat-9017"><path d="m11.3891 1.20942c-2.70001-2.200003-7.00001-1.3000031-9.50001 1.9-2.599998 3.2-2.499999 7.59998.2 9.69998 2.7 2.1 7 1.3 9.50001-1.9 2.6-3.19998 2.5-7.49998-.2-9.69998zm-1.3 8.5c-2.10001 2.59998-5.10001 2.89998-6.70001 1.59998s-2-4.29998.1-6.89998 5.1-2.9 6.70001-1.6c1.6 1.2 2 4.3-.1 6.9z" transform="translate(8.21094 3)"></path><path d="m.7.0000001 8.2 6.4999999-.7.8-8.19999962-6.5z" transform="translate(11.5 5.10938)"></path><path d="m.6.0000001 8.2 6.4999999-.7.8-8.10000019-6.5z" transform="translate(9.59961 7.60938)"></path><path d="m0 10 8-10 .8.6-8 10z" transform="translate(9.40039 3.70947)"></path><path d="m-.00000038 10 8.00000038-10 .8.6-8 10z" transform="translate(11.7998 5.70947)"></path><path d="m1.8 1c0-.4.1-.8.1-.99999981l2 .29999981c0 .2 0 .4-.1.8 0 .2 0 .5-.1.8-.1.7-.2 1.7-.3 2.6-.1 1-.3 2-.6 2.9s-.7 1.9-1.3 2.6l-1.5000001-1.3c.4000001-.4.7000001-1.1.9000001-1.9.3-.8.4-1.7.6-2.6.1-.9.2-1.8.3-2.5 0-.2 0-.5 0-.7z" transform="translate(6.5 9.5094)"></path><path d="m9.4 2c.1 0 1.6169-1.1 1.7169-1.1s-1.8169-.9-1.8169-.9c-.1 0-.1 0-.2 0-.7.1-2.4.4-4 .9-.9.3-1.9.6-2.8 1s-1.8 1-2.3 1.6l1.6 1.2c.3-.3.8-.7 1.5-1s1.6-.6 2.5-.9c1.5-.4 3.1-.7 3.8-.8z" transform="translate(6.5 14.7095)"></path><path d="m-.0000001 2.5 2.0000001-2.5 1.6 1.2-2 2.5z" transform="translate(4.5 18.2095)"></path><path d="m3 1.5c0 .8-.7 1.5-1.5 1.5s-1.5000001-.7-1.5000001-1.5.7000001-1.5000001 1.5000001-1.5000001 1.5.6000001 1.5 1.5000001z" transform="translate(4 6)"></path></symbol></defs><use href="#icon-fat-9017" fill="#797878"></use></svg>