<svg xmlns:xlink="http://www.w3.org/1999/xlink" xmlns="http://www.w3.org/2000/svg" width="24" height="24"><defs><symbol viewBox="0 0 24 24" id="icon-fat-20310">
<path fill-rule="evenodd" clip-rule="evenodd" d="M5 1C3.89543 1 3 1.89543 3 3V4.21922C3 5.13696 3.62459 5.93692 4.51493 6.15951L5.58816 6.42782C5.82345 6.48664 6.05069 6.56695 6.26747 6.66683C6.17871 6.79788 6.07114 6.94002 5.94421 7.08106C5.50275 7.57156 4.87802 8.00002 4 8.00002C3.44772 8.00002 3 8.44774 3 9.00002C3 9.55231 3.44772 10 4 10C5.62198 10 6.74725 9.17848 7.43079 8.41899C7.57371 8.26019 7.69954 8.10199 7.80921 7.95111C7.91951 8.10778 8.01871 8.27348 8.10557 8.44721L8.81943 9.87493L6.31479 13.0057C5.46368 14.0696 5 15.3915 5 16.7539V20C5 21.6569 6.34315 23 8 23H17C18.6569 23 20 21.6569 20 20V16.7539C20 15.3915 19.5363 14.0696 18.6852 13.0057L16.1449 9.83034L16.4256 9.12861C16.5775 8.74895 16.9452 8.5 17.3541 8.5H17.7394C19.4757 8.5 20.3873 6.4394 19.2193 5.15465L16.6327 2.30931C15.8746 1.47541 14.7999 1 13.6729 1H5ZM14.5194 11H10.4806L8.88062 13H16.1194L14.5194 11ZM17.5929 14.9957C17.5623 14.9986 17.5313 15 17.5 15H7.5C7.46868 15 7.43769 14.9986 7.40711 14.9957C7.14092 15.5397 7 16.1406 7 16.7539V20C7 20.5523 7.44772 21 8 21H17C17.5523 21 18 20.5523 18 20V16.7539C18 16.1406 17.8591 15.5397 17.5929 14.9957ZM14.323 9L14.5686 8.38583C15.0242 7.24685 16.1274 6.5 17.3541 6.5L17.7394 6.5L15.1528 3.65465C14.7737 3.23771 14.2364 3 13.6729 3H5V4.21922L6.07323 4.48753C7.73332 4.90255 9.12916 6.02226 9.89443 7.55279L10.618 9H14.323Z"></path>
</symbol></defs><use href="#icon-fat-20310" fill="#797878"></use></svg>