<svg xmlns:xlink="http://www.w3.org/1999/xlink" xmlns="http://www.w3.org/2000/svg" width="24" height="24"><defs><symbol viewBox="0 0 24 24" id="icon-fat-6700"><g clip-rule="evenodd" fill-rule="evenodd"><path d="m8 2h-6v2h6zm-6-2c-1.104569 0-2 .895431-2 2v2c0 1.10457.895431 2 2 2h6c1.10457 0 2-.89543 2-2v-2c0-1.104569-.89543-2-2-2z" transform="translate(3 16)"></path><path d="m10 2h-7c-.55228 0-1 .44772-1 1v3c0 .55228.44772 1 1 1h7c.5523 0 1-.44772 1-1v-3c0-.55228-.4477-1-1-1zm-7-2c-1.65685 0-3 1.34315-3 3v3c0 1.65685 1.34315 3 3 3h7c1.6569 0 3-1.34315 3-3v-3c0-1.65685-1.3431-3-3-3z" transform="translate(3 3)"></path><path d="m4 2h-2v1h2zm-2-2c-1.104569 0-2 .895431-2 2v1c0 1.10457.895431 2 2 2h2c1.10457 0 2-.89543 2-2v-1c0-1.104569-.89543-2-2-2z" transform="translate(14 5)"></path></g><path d="m0 0h3v1h-3z" transform="translate(19 7)"></path><path clip-rule="evenodd" d="m2.76556 2-.5 4h.96888l.5-4zm-1.76556-2-1 8h5l1-8z" fill-rule="evenodd" transform="translate(5 10)"></path></symbol></defs><use href="#icon-fat-6700" fill="#797878"></use></svg>