<svg xmlns:xlink="http://www.w3.org/1999/xlink" xmlns="http://www.w3.org/2000/svg" width="24" height="24"><defs><symbol viewBox="0 0 24 24" id="icon-fat-13224"><path clip-rule="evenodd" d="m3.71749 6.55196-.38778 1.26169c-.21024.68403-.32483 1.41827-.32483 2.18635 0 3.9659 3.0261 7 6.54102 7 3.5149 0 6.541-3.0341 6.541-7 0-.78686-.12-1.53788-.34-2.2354l-.3887-1.23248.9639-.86078c.3708-.33115.6779-.92193.6779-1.67134 0-1.38018-.9151-2-1.4717-2-.36 0-.7896.19983-1.115.71357l-.9068 1.43205-1.5614-.65981c-.7422-.31366-1.5502-.48581-2.3992-.48581-.86941 0-1.69664.18075-2.454.50933l-1.58373.68709-.91108-1.46637c-.32683-.52603-.76246-.73005-1.12639-.73005-.55526 0-1.4707.61943-1.4707 2 0 .77227.32572 1.37425.70989 1.69933zm2.57841-4.8774c-.62988-1.013793-1.66016-1.67456-2.8252-1.67456-1.91699 0-3.4707 1.79089-3.4707 4 0 1.3241.557617 2.49805 1.41797 3.22607-.26856.87378-.41309 1.80603-.41309 2.77393 0 4.9706 3.82422 9 8.54102 9s8.541-4.0294 8.541-9c0-.99121-.1514-1.94507-.4326-2.83691.8193-.73169 1.3457-1.87647 1.3457-3.16309 0-2.20911-1.5537-4-3.4717-4-1.1523 0-2.1738.647339-2.8047 1.64355-.9824-.41516-2.0547-.64355-3.1777-.64355-1.15039 0-2.24805.23987-3.25.67456z" fill-rule="evenodd" transform="translate(3 3)"></path><path d="m3 1.5c0 .82843-.67157 1.5-1.5 1.5-.828427 0-1.5-.67157-1.5-1.5 0-.828427.671573-1.5 1.5-1.5.82843 0 1.5.671573 1.5 1.5z" transform="translate(11 12)"></path><path d="m2 1c0 .55228-.44772 1-1 1-.552285 0-1-.44772-1-1 0-.552285.447715-1 1-1 .55228 0 1 .447715 1 1z" transform="translate(14 9)"></path><path d="m2 1c0 .55228-.44772 1-1 1-.552285 0-1-.44772-1-1 0-.552285.447715-1 1-1 .55228 0 1 .447715 1 1z" transform="translate(9 9)"></path></symbol></defs><use href="#icon-fat-13224" fill="#797878"></use></svg>