<svg xmlns:xlink="http://www.w3.org/1999/xlink" xmlns="http://www.w3.org/2000/svg" width="24" height="24"><defs><symbol viewBox="0 0 24 24" id="icon-fat-4306"><path clip-rule="evenodd" d="m14 2h-12v15h12zm-12-2c-1.104569 0-2 .895431-2 2v15c0 1.1046.895431 2 2 2h12c1.1046 0 2-.8954 2-2v-15c0-1.104569-.8954-2-2-2z" fill-rule="evenodd" transform="translate(4 3)"></path><path d="m2 1c0 .55228-.44772 1-1 1-.552285 0-1-.44772-1-1 0-.552285.447715-1 1-1 .55228 0 1 .447715 1 1z" transform="translate(7 6)"></path><path d="m2 1c0 .55228-.44772 1-1 1-.552285 0-1-.44772-1-1 0-.552285.447715-1 1-1 .55228 0 1 .447715 1 1z" transform="translate(10 6)"></path><path clip-rule="evenodd" d="m5 8c1.65685 0 3-1.34315 3-3s-1.34315-3-3-3-3 1.34315-3 3 1.34315 3 3 3zm0 2c2.76142 0 5-2.23858 5-5s-2.23858-5-5-5-5 2.23858-5 5 2.23858 5 5 5z" fill-rule="evenodd" transform="translate(7 9)"></path></symbol></defs><use href="#icon-fat-4306" fill="#797878"></use></svg>