<svg xmlns:xlink="http://www.w3.org/1999/xlink" xmlns="http://www.w3.org/2000/svg" _ngcontent-rz-client-c2069819878="" aria-hidden="true" width="24"  height="24" ><defs><symbol viewBox="0 0 24 24" id="icon-youtube">
  <path fill-rule="evenodd" clip-rule="evenodd" d="M19.8144 5.41728C20.6786 5.65197 21.352 6.32558 21.5822 7.18578C22 8.74562 22 12 22 12C22 12 22 15.2544 21.5811 16.8131C21.3517 17.6738 20.678 18.3477 19.8133 18.5816C18.2544 19 12 19 12 19C12 19 5.74556 19 4.18556 18.5827C3.32137 18.348 2.64803 17.6744 2.41778 16.8142C2 15.2544 2 12 2 12C2 12 2 8.74562 2.41778 7.18578C2.64776 6.32526 3.32186 5.65173 4.18667 5.41839C5.74556 5 12 5 12 5C12 5 18.2544 5 19.8144 5.41728ZM9.95465 9.04588V14.9541L15.1824 12L9.95465 9.04588Z"></path>
</symbol></defs><linearGradient _ngcontent-rz-client-c2069819878="" id="instagramGradient" x1="0%" y1="0%" x2="100%" y2="0%" gradientTransform="rotate(45)" fill="#797878"><stop _ngcontent-rz-client-c2069819878="" offset="14.65%" stop-color="#ffb700" fill="#797878"></stop><stop _ngcontent-rz-client-c2069819878="" offset="31.68%" stop-color="#ff6800" fill="#797878"></stop><stop _ngcontent-rz-client-c2069819878="" offset="54.72%" stop-color="#cb217d" fill="#797878"></stop><stop _ngcontent-rz-client-c2069819878="" offset="85.35%" stop-color="#7e00aa" fill="#797878"></stop></linearGradient><use _ngcontent-rz-client-c2069819878="" href="#icon-youtube" fill="#797878"></use></svg>